<?xml version="1.0" encoding="UTF-8"?>
<svg id="Capa_1" xmlns="http://www.w3.org/2000/svg" version="1.1" viewBox="0 0 1541.4 1101.3">
  <!-- Generator: Adobe Illustrator 30.5.1, SVG Export Plug-In . SVG Version: 2.1.4 Build 3)  -->
  <defs>
    <style>
      .st0 {
        fill: #fff;
      }
    </style>
  </defs>
  <path class="st0" d="M779.3,175.8l23,32.7,15.9,23.6c61.5,96.5,118.7,195,169.7,297.5l30.5,72c1.6,3.8,4.3,10.5-.3,13.9-40.8,30-90.8-20.2-117.1-57.8l-27.7-39.3-70-113.6-21.3-30.9c-11-15.9-32.8-36.5-40.3-27.6l-11.2,13.2-39.5,66.6c-30.4,58.6-57.3,117.1-83.9,180.5,10.1-5.7,14.8-16.8,21.7-26.1l75.3-102.9,30.2-38c10.7-4.3,23.6,6,28.8,14.1l14,22.1,39.5,86.4c11.5,25.2,25.2,47.6,42.8,68.9,70.1,84.9,166.8,76,262.5,37.7,12.6-30.6,5.3-76.9-3.2-110.8-10.7-42.6-24.9-82.9-42.2-123.4-20.8-48.7-42.4-95.4-68.7-141.1l-32.6-56.6C943.1,181.4,814.8-14.9,757,.9c-34,9.3-62.6,27.8-88.8,50.9-82,72.6-163.9,211.6-207.9,312.1l-30.3,69.1c-32,77.4-61.3,155-78.6,236.8l-8.5,40c-6.5,30.6-13.5,88.3,4.2,111.7,41-12.5,82.5-18.6,124.9-23.6l19.3-1.1h53.7s19.2,1.1,19.2,1.1c53,5,103.8,14.7,154.5,31.6l112.8,37.7c32.8,10.9,65.1,22,99.9,22.2l41,.2c23.9.1,46.3-8.1,68.2-17.2,64.1-26.8,124.9-90,167.5-146.6l-82.6,21.3c-30.9,8-111.2,17.5-140.3,14.9l-40.6-3.6-23.6-3.8c-39.6-8.1-75.6-23.3-112.2-39.8l-74.5-33.5c-47.6-17.7-96.1-22-146.6-13.9-42.8,6.8-83,19.3-123.2,35-4.6,1.8-11.8.2-12.8-4.9-2.8-14.4,0-28.4,4.5-42.5,11.6-36.6,26.2-71,42.8-105.5l29.2-60.4c47.3-92,96.6-181.6,151.8-269.2,17.2-27.4,34-53,54.3-77.6,3.9-4.7,9.4-6.2,14-2.1,11.9,10.6,21.8,22.6,31,35.6h0Z"/>
  <g>
    <path class="st0" d="M90.1,1043.5l18.7,27.4c6.6,9.7,11.8,20.1,20.4,28.2l27.9.5v-102.1c0,0-28.8.3-28.8.3.4,19.7,2.1,36.7-1.1,55.9l-38.5-56.2-29,.3.2,101.4h28.2c4-17.4-2.6-37.2,2.1-55.8Z"/>
    <rect class="st0" y="997.5" width="31.7" height="102.3"/>
    <path class="st0" d="M271.2,1023.4l.6,75.9c9,.2,17,1.1,25.4-.7v-100.5c0,0-40.2.3-40.2.3l-16.6,60.9-16.4-60.9-39.2-.6v95.7c-5.9,7.3,6,6.9,24,5.3l.7-75.3,19.6,75.8h22.7c0,0,11.1-44.9,11.1-44.9l8.3-31h0Z"/>
    <path class="st0" d="M1492.2,1074.3h-47.2s-.1-75.8-.1-75.8c-10.7-1.1-20.2-1.7-30.2,0l-.7,101h78.2c1.9-8.7,2.4-16.2,0-25.3h0Z"/>
    <polygon class="st0" points="1389.3 1099.1 1388.9 1071.4 1359.1 1071.4 1359.5 1099 1389.3 1099.1"/>
    <polygon class="st0" points="1541.4 1099.5 1541 1071.4 1512.1 1072.1 1512.6 1099.3 1541.4 1099.5"/>
    <path class="st0" d="M396.2,1000.8c-20-8.9-52.8-5.9-67.4,14.8-12.5,17.7-13.1,43.5-2.6,62.5,12,21.7,41.9,27.2,64.7,20.6,22.9-6.6,31.4-28.6,31.2-51.1s-7.7-38.6-26-46.8h0ZM390.6,1066.5c-3,8.3-10.2,10.4-15.9,11.7-7.1,1.5-14.4-.9-18.9-6.6-7.6-9.8-9.3-45.1,7.6-50.5,10.1-3.2,22.6-1.1,26.9,9.7,4.4,10.9,4.4,24.3.2,35.8h0Z"/>
    <polygon class="st0" points="724.5 997.9 725.1 1098.8 756.3 1098.9 756 998.4 724.5 997.9"/>
    <path class="st0" d="M520,1044.8c10.8-4.7,14.6-10.9,15.6-19.5,2-16.8-14.8-27.3-27.5-27.4l-61-.3.2,101.5,63.1-.4c11.4,0,21.2-5.2,26-13.6,5.6-9.7,6-21.1-.8-30.2-3.8-5.1-8.6-6.3-15.7-10.2h0ZM478.5,1018.5c7.2.4,16.4-1.9,23.9,1.5,4.6,2.1,3.6,12.9-.3,16.3-8.7,2-15.5,1-23.6,1v-18.8ZM508.9,1069.8c-1.7,9.9-15.2,10-30.1,8.1v-20.8c8.7.2,17.3-1,25.7,1.6,5,1.5,5,7.2,4.3,11.2h0Z"/>
    <rect class="st0" x="563.6" y="997.6" width="31.7" height="101.9"/>
    <path class="st0" d="M654.1,1074.2l.2-76.3h-31.3c0,0,0,101.5,0,101.5h80.2c.7-8.6,1.3-16.1-.2-25.2h-48.9c0,0,0,0,0,0Z"/>
    <path class="st0" d="M846.4,998l-34.2.6-37.5,100.6,30.7.2,5.1-17.4h35.8c3,5.9,2.9,12.4,7.4,17.4l30-1.1-27.4-72.1-10-28.3h0ZM817.1,1060.2l11.3-37.2,11.6,38.3-22.8-1.1h0Z"/>
    <path class="st0" d="M968.4,1055.1c9-4.5,16.7-9,20.7-17.5,4.3-9.1,3.9-19.6-2-27.8-4.4-6.2-12.6-11.4-22.3-11.5l-63-.8v102s29.4-.7,29.4-.7l.7-40.9c9.1-1,14.1,4.6,17.8,11.8l15.4,29.8c11.8-.2,22.6,1.3,34.1-1.1l-16.7-31.3c-3-5.7-7-9.4-14.2-11.9h0ZM957.1,1036.2c-8.6,4-17.5,3-25.4,2.8l.3-20.9,22.6,1c3.9.2,6,4.5,6.2,7.2.1,3,0,8.2-3.7,9.9h0Z"/>
    <polygon class="st0" points="1017.4 997.7 1017.3 1098.8 1049 1099 1048.5 998.1 1017.4 997.7"/>
    <path class="st0" d="M1104.9,997.7l-38.4,101.5,32.2.2,5.2-17.6h35.2l4.7,17.6c11.1,0,21.3,1.5,32.8-1l-38-100.1-33.6-.5h0ZM1110,1060.3l11.4-36.1,12,35.7-23.4.4h0Z"/>
    <path class="st0" d="M1307.1,998l-33.1-.4-38.4,101.6,31.4-.4,5.2-17.6,34.9.7c3.9,5,4.2,10.4,5.7,17,11.2.5,21.7,1.5,32.2-.5l-37.9-100.5h0ZM1277.9,1060.7l11.5-36.7,11.8,37.2-23.3-.5h0Z"/>
  </g>
</svg>