<?xml version="1.0" encoding="UTF-8"?>
<svg id="Capa_1" data-name="Capa 1" xmlns="http://www.w3.org/2000/svg" viewBox="0 0 5111.83 756.43">
  <defs>
    <style>
      .cls-1 {
        fill: #ba8d2d;
      }
    </style>
  </defs>
  <g>
    <path d="M1428.95,369.33l-9.83-123.83-68.24,153.69-70.38-155.94-7.72,128.3c-.41,6.88,10.76,15.26,22.25,23.11l-59.73-.51c12.9-7.27,24.88-14.06,25.5-23.36l9.1-135.12c.37-5.5-2.98-16.91-6.92-19.09l-20.96-11.59,52.09-.02,65.15,144.99,63.88-144.01,48.23.05-17.37,10.37c-3.13,1.87-5.68,10.23-5.45,14.11l8.34,140.42c.46,7.8,8.14,14.53,20.54,24.03l-69.91-.32,14.66-8.98c3.28-2.01,7.18-11.06,6.77-16.32Z"/>
    <path d="M4098.81,300.41c0,54.93-44.53,99.45-99.45,99.45s-99.45-44.53-99.45-99.45,44.53-99.45,99.45-99.45,99.45,44.53,99.45,99.45ZM4055.68,353.63c15.25-34.89,13.93-74.29-3.56-107.32-12.21-23.05-30.92-35.35-54.67-35.31-22.63.03-43.75,11.24-54.85,34.99-16.89,36.16-13.4,81.14,8.24,115.01,12.75,19.96,34.06,29.6,55.82,28.32,20.45-1.2,39.67-14.31,49.01-35.69Z"/>
    <path class="cls-1" d="M5055.76,639.06c4.41.07,12.98,5.07,12.03,7.59-5.1,13.61-495.92,17.5-610.45.39,99.2-14.32,195.8-14.65,294.5-13.01l303.91,5.03Z"/>
    <polygon class="cls-1" points="1415.86 659.67 1090.98 652.94 1092.27 639.74 1327.3 633.95 1609.57 638.59 1694.98 641.49 1694.11 651.48 1415.86 659.67"/>
    <path d="M1871.28,328c-5.66-8.27-21.9-13.94-28.18-7.82l-1.29,49.71c-.09,3.54,2.25,12.54,4.87,14.07l18.37,10.67-71.76.37,21.95-12.71.59-132.56c.02-3.52-.95-11.92-3.41-13.32l-17.49-9.96c63.74-2.11,134.41-10.94,135.56,45.21.43,20.76-14.94,36.77-40.57,41.39l37.79,50.77c9.47,12.72,23.15,21.53,37.18,30.15-13.85,2.43-39.07,2.92-50.29-2.73l-43.32-63.24ZM1890.58,299.99c17.67-16.5,12.75-40.92,1.57-53.11-11.19-12.2-37.26-16.01-49.74-8.91l-.43,67.71c12.44,5.37,36.94,5.21,48.61-5.69Z"/>
    <path d="M3707.43,310.7c0,50.4-40.86,91.25-91.25,91.25s-91.25-40.86-91.25-91.25,40.86-91.25,91.25-91.25,91.25,40.86,91.25,91.25ZM3671.09,355.24c12.1-28.93,10.75-60.09-.91-86.15-9.92-22.19-30.18-36.53-51.49-37.71-20.66-1.14-44.11,8.25-54.17,28.49-16.23,32.66-14.64,73.77,5.46,103.5,12.35,18.26,33.17,28.1,53.57,26.52,17.5-1.36,38.87-13.92,47.54-34.65Z"/>
    <path d="M3261.79,310.77c0,50.21-40.71,90.92-90.92,90.92s-90.92-40.71-90.92-90.92,40.71-90.92,90.92-90.92,90.92,40.71,90.92,90.92ZM3216.43,257.23c-18.33-29.37-61.86-36.12-86.01-9.54-32.3,35.55-30.1,91.9,3.55,125.56,13.66,13.66,33.64,18.87,52.28,15.02,43.72-9.04,63.28-78.02,30.18-131.04Z"/>
    <path d="M2631.92,401.31l-128.98-141.79c1.15,54.81-16.25,121.19,23.42,134.96l-56.6.26c6.11-4.57,21.2-14.23,21.21-20.97l.26-127.5c.01-6.29-17.05-14.98-24.68-19.52l44.17-1.83,111.09,123.92c2.18-50.83,13.82-108.82-21.56-122.49l54.91-.62c-12.65,8.64-20.31,15.53-21.23,27.82.64,50.28,1.39,89.28-2.02,147.75Z"/>
    <path d="M2916.56,377.02c.06,6.16,18.37,13.1,25.55,17.25l-75.71,1.14,22.22-17.09-.18-160.11-22.36-13.35,94.62.82c24.88.22,46.9,18.2,50.77,38.53,4.5,23.63-3.63,47.52-27.01,59.39-20.19,10.25-42.01,10.1-68.5,9.82l.6,63.6ZM2973.24,288.91c13.57-18.23,12.43-51.3-5.35-65.39-13.22-10.48-36.19-10.63-52.01-9.49l.34,88.43c20.44,3.7,43.76,4.27,57.02-13.54Z"/>
    <path d="M1661.79,313.64l-49-1.17.84,68.58c24.11,6.59,52.31,6.36,72.85-4.65l20.4-28.97-6.41,47.8-136.79-.34,22.59-12.32.97-142.45-21.8-14.01,128.64-.89.14,39.38c-19.94-36.66-37.37-28.75-80.87-29.21l-.06,67.77,43.09-1.81c5.73-.24,14.22-12.72,20.59-19.01l.5,52.6-15.68-21.31Z"/>
    <path d="M4849.59,333.74l-63.56-.84-19.77,47.41,19.92,14.03-54.83.75c10.26-8.4,20.71-15.91,24.71-24.76l69.85-154.5,64.55,150.34c4.95,11.54,13.17,18.36,26.06,29.01l-67.66-.11,17.59-13.49-16.85-47.85ZM4843.63,323.53l-25.5-64.56-28.28,64.55h53.78Z"/>
    <path d="M4457.52,333.49l-62.37-.09-15.63,37.9c-1.07,2.6-.79,10.77,1.32,12.5l13.4,10.97-55.52.17c13.05-8.73,24.11-14.84,28.87-25.71l67.21-153.81,65.07,153.57c4.25,10.04,13.71,17.35,24.87,26.01l-67.95-.05,18.01-13.37-17.25-48.11ZM4453.03,323.2l-27.13-65.37-27.49,65.65,54.62-.28Z"/>
    <path d="M3154.06,704.72l-2-78.53-26.32,55.55c-1.35,2.85-7.98,7.89-10.47,7.92-3.3.05-9.41-4.87-10.89-8.24l-24.32-55.37-1.89,78.96-17.47-.59-.25-110.28c1.69-4.02,17.97-4.42,22.2-.87l33.31,69.22,34.27-69.84,21.45-2.64.06,114.96-17.66-.24Z"/>
    <path d="M2369.82,252.31l-41.22,62.63-1.73,55.41c-.1,3.14,1.56,11.97,4.06,13.47l17.79,10.63-70.95.87,21.21-13.6c.4-15.66,1.84-46.77-.89-62.5l-45.78-70.65c-5.39-8.31-16.98-15.81-26.35-22.46l66.35-.87-14.5,15.81,42.85,66.96,41.18-63.02c2.79-4.27-7.59-13.37-14.82-18.75l53.87-.34c-13.24,8.87-23.95,15.56-31.08,26.39Z"/>
    <path d="M4694.02,239.1l-50.1,80.67-.43,59.05,23.15,15.79-70.57.27c5.37-4.64,19.79-12.3,19.82-17.68l.23-57.89-48.15-72.86c-3.41-5.16-13.19-12.18-23.55-20.42l69.21-.09-18.49,13.73,43.14,68.49,36.49-58.51c1.43-2.29,5.23-9.36,3.49-10.92l-14.28-12.76,53.74.26-23.69,12.86Z"/>
    <path d="M4300.38,349.46l-8.25,45.75-135.89-.19,22.73-15.45.32-129.87c0-3.53-1.76-12.11-4.38-13.56l-17.97-9.99,70.71-.56-21.15,12.17-.13,146.32,52.93.19c17.09.06,24.63-17.32,41.09-34.81Z"/>
    <path d="M3469.45,350.11l-10.15,45.17-132.64-.47,21.49-13.06.6-140.72-20.92-14.84,64.88-.41-17.51,17.63.35,141.05c22.93.99,41.88,1.88,62.07-3.41,9.7-2.54,18.21-20.18,31.83-30.94Z"/>
    <path d="M3348.37,647.91c0,32.99-26.74,59.73-59.73,59.73s-59.73-26.74-59.73-59.73,26.74-59.73,59.73-59.73,59.73,26.74,59.73,59.73ZM3327.16,645.1c-1.21-25.29-18.25-40.13-38.48-40.26-20.31-.12-35.45,15.59-37.88,37.91-2.78,25.61,13.03,47.92,37.54,47.33,21.65-.52,40.14-17.34,38.82-44.99Z"/>
    <path d="M2388.93,701.43c-5.52,3.73-18.4,3.1-21.44-1.17l-53.27-74.9-3.04,72.95c-.19,4.6-11.54,7.69-16.58,6.18l-.05-113.41c11.74-3.13,20.1,2.78,25.77,10.89l49.96,71.49,1.93-82.04c2.23-2.59,16.71,1.23,16.72,6.36v103.65Z"/>
    <path d="M3476.33,644.92c5.3,8.29,13.49,23.04,12.72,33.7-.92,12.78-16.51,26.51-29.48,26.53l-55.58.08-.17-115.17,50.59.34c8.63.06,22.95,8.41,26.21,15.39,4.32,9.24.92,27.25-4.29,39.13ZM3453.19,637.69c6.29-.56,15.01-15.77,11.34-20.43-12.88-16.32-41.75-11.37-41.67-7.57l.49,24.74c.11,5.66,18.58,4.25,29.84,3.26ZM3456.21,687.32c6.4-.33,15.88-12.87,14.34-17.7-1.23-3.86-7.59-13.38-11.63-13.67l-36.5-2.61.02,35.72,33.76-1.75Z"/>
    <path d="M2182.86,349.69l-7.03,45.56-133.6-.25,20.41-14.04.45-139.52-19.4-15.5,65.07-.69-20.67,17.88,1.12,140.5c46.78,4.55,67.58,6.72,93.66-33.94Z"/>
    <path d="M4052.97,695.38l-19.43-32.77c-1.85-3.12-17-6.16-17.92-2.69-1.22,4.62-2.88,14.79-3.08,20.52l-.72,20.71c-.14,3.97-11.06,4.31-17.84,3.42l-.21-114.53,54.45,1.03c13.16.25,27,18.3,26.92,29.98-.11,15.48-8.14,27.5-22.14,37.41l24.93,43.65-13.28,3.52c-3.74.99-8.94-5.6-11.69-10.25ZM4050.15,642.17l5.9-19.82c1.22-4.11-8.36-13.97-12.82-14.29l-30.99-2.23.64,37.96,37.28-1.61Z"/>
    <path d="M4328.1,645.08c1.31,40.28-28.1,65.12-62.2,62.04-34.71-3.14-55.87-32.11-50.98-69.49,4.04-30.9,27.46-48.96,56.02-49.13,30.32-.18,56,20.82,57.16,56.59ZM4309.35,649.52c.64-26.02-17.06-45.36-38.93-44.66-22.38.72-37.02,19.26-37.25,42.85-.23,23.28,14.78,42.36,37.16,42.49,20.24.12,38.42-16.55,39.01-40.69Z"/>
    <path d="M2994.5,701.11c-.03,7.8-20.01,1.66-24.21-4.45l-51.64-75.14-1.13,83.25-16.47-.74.65-110.31c.04-6.04,18.64-1.51,22.62,4.15l51.87,73.73,1.55-66.54-.31-11.35c-.1-3.47,12.86-3.46,17.47-2.25l-.4,109.65Z"/>
    <path d="M2071.08,677.35c1.67-2.52,4.75-17.66,1.8-18.02l-18.12-2.2c-2.71-.33-9.65-.09-9.7-2.32l-.24-9.64c-.06-2.23,7.2-2.52,9.65-2.58l35.72-.87-.14,45.51c-21.57,25.32-63.24,28.04-88.36,3.69-21.15-20.5-22.91-59.15-1.91-85.47,18.62-23.34,64.71-21.72,83.62-2.39,3.11,3.18-4.95,16.49-6.93,13.8-13.56-10.43-32.53-15.84-48.47-8.94-13.23,5.73-23.34,22.27-23.61,39.78-.25,15.99,8.7,31.31,20.21,38.07,14.31,8.41,36.97,5.96,46.5-8.43Z"/>
    <path d="M1910.44,679.95c-11.33-3.92-39.57-4.11-52.42-.08l-8.41,20.45c-1.76,4.27-11.16,4.9-21.39,3.75l41.73-102.87c1.68-4.15,7.12-10.87,10.73-12.16,4.51-1.61,13.9,6.02,15.73,10.59l42.21,105.48c-17.68,2.54-23.99-4.62-28.19-25.15ZM1902.39,662.09l-18.97-45.16-18.62,43.25,37.59,1.91Z"/>
    <path d="M3914.31,678.88l-54.06-.06-7.87,21.62c-1.58,4.34-12.7,4.89-21.09,2.86l45.32-108.99c2.03-4.89,18.84-4.41,20.68.28l42.75,108.91c-16.12,5.41-25.4-1.88-25.74-24.62ZM3904.45,661.98l-18.35-44.83-17.79,42.95,36.14,1.89Z"/>
    <path d="M2218.98,653.04l-44.69,1.76-1.41,33.43,60,.55-.6,16.46-78.08.13.23-115.18,73-.04c4.48,0,4.44,15.82.07,15.86l-53.26.44-2.28,30.88,45.87.84c3.59.07,4.79,14.73,1.15,14.88Z"/>
    <path d="M2654.94,653.79l-45.09.81-.05,33.78,51.6.08c2.17,0,7.5,3.57,9.13,5.03,2.43,2.18-4.77,11.81-8.28,11.81l-70.6.03-.33-115.05,74.26-.21-.21,16.46-55.72-.16.21,31.37,47.2.56c2.45.03.4,15.45-2.12,15.49Z"/>
    <path d="M2497.93,701.01c-.05,4.39-16.86,4.37-16.87-.49l-.13-93.26-35.4-1.63.21-15.32,82.64-.28c4.63-.02,5.97,15.29,2.12,15.44l-31.51,1.24-1.05,94.3Z"/>
    <polygon points="3702.82 688.85 3702.75 705.49 3633 704.55 3633.09 592.69 3650.87 590.42 3651.17 688.56 3702.82 688.85"/>
    <rect x="3759.12" y="589.8" width="18.93" height="115.83" transform="translate(-.97 5.65)"/>
    <rect x="4136.03" y="590.06" width="18.37" height="115.3"/>
    <path d="M2834.01,688.29l-2.57,15.83c-.57,3.5-15.93-1.21-15.92-5.78l.19-106.47,17.15-1.56,1.15,97.99Z"/>
    <path d="M3565.67,699.81c.01,6.62-18.48,6.15-18.44.21l.61-104.71c.03-5.58,17.66-5.68,17.67-.09l.17,104.58Z"/>
  </g>
  <g>
    <polygon class="cls-1" points="604.54 164.2 523.89 97.08 386.31 211.59 249.35 325.6 309.59 261.81 454.84 116.22 524 48.64 652.62 174.54 749.66 273.42 808.53 338.05 604.54 164.2"/>
    <path class="cls-1" d="M725,230.76l-43.2-41.66-.56-39.96c-.04-2.76-6.56-3.06-8.36-2.38l-.3-6.9,61.64-.04c.06,2.44.44,4.71-.3,6.95-2.73-.52-5.07-.31-6.87,1.01-1.35.99-2.01,3.43-2.02,5.82l-.05,77.16Z"/>
    <g>
      <polygon class="cls-1" points="561.22 253.01 528.69 252.96 528.95 220.57 561.22 220.36 561.22 253.01"/>
      <polygon class="cls-1" points="561.19 210.72 528.82 210.68 529.01 178.73 561.29 178.77 561.19 210.72"/>
      <polygon class="cls-1" points="517.77 210.78 485.66 210.71 485.62 178.87 517.86 178.71 517.77 210.78"/>
      <rect class="cls-1" x="485.46" y="220.33" width="32.42" height="32.85" transform="translate(-.7 1.48)"/>
    </g>
    <g>
      <path class="cls-1" d="M499.69,588.5l.03-243.02c0-19-1.26-36.48-18.92-40.5-16.7-3.8-39.25-2.45-42.56,13.89-1.33,6.56-1.75,12.48-1.75,19.6l.04,218.6c0,9.13.47,17.13,2.84,25.49,3.62,12.79,16.06,16.5,28.85,19.3.17,1.4.18,2.48-.02,3.76l-105.9-.05c-.39-1.48-.33-3.01.22-3.66,13.08-2.81,24.5-6.45,28.69-19.57l3.02-17.4-.17-227.63-108.02,216.87c-.6,1.21-3.4.82-4.16.02l-65.11-114.51-54.28-95.74-.17,220.94c2.4,22.55,10.22,32.18,31.91,37.02.49.88.53,2.1.23,3.63l-77.64.09c-.45-1.25-.46-2.68-.15-3.27,1.3-2.48,33.29-.94,33.29-44.45v-211.14c0-30.38-18.45-40.7-46.6-44.83-.28-1.49-.21-2.84.08-4.2l87.15-.02,28.85,52.96,80.33,149.23,73.38-146.45,27.64-55.69,188,.28c40.56.06,82.55,18.77,91.09,59.85,10.27,49.38-20.1,88.65-67.87,99.18-18.05,3.98-35.67,4.11-54.08,2.95l-21.85-1.38-.04,127.48c0,18.72,2.99,41.64,22.07,42.37l22.09.85,30.97,1.01,132.72,4.79,83.12,3.34,109.84,5.02c2.57.12,5.47-1.64,7.18,1.76l-128.17.09-537.87.06-48.89-.03-37.09-.09-94.09.08c.85-2.91,2.68-1.78,5.17-1.89l167.39-7.04,31.56-1.18,108.65-3.84,33.21-1.22,33.77-1.67c18.42-.91,21.99-21.12,21.99-40.01ZM608.65,312.27c-11.08-4.45-22.58-6.83-34.72-6.79l-37.83.11-.1,146.34c16.59,2.49,32.98,3.3,49.72,1.36,24.82-2.88,45.29-17.65,54.62-40.96,14.22-35.54,6.53-83.92-31.69-100.06Z"/>
      <path class="cls-1" d="M882.01,575.66c-25.7,23.81-57.5,35.52-92.07,35.92-38.39.44-75.09-14.04-101.19-41.98-21.06-22.53-31.15-50.71-32.34-81.36-1.87-47.82,22.13-92.06,64.05-115.57,25.99-14.57,55.55-20.01,85.5-16.94,18.11,1.86,34.9,6.32,50.84,14.75,29.31,15.5,50.56,41.23,59.36,73.4,12.67,46.32,2.09,98.21-34.15,131.78ZM875.24,528.16c9.95-37.22,8.18-79.97-9.95-114.09-8.73-16.42-20.56-30.21-36.47-39.74-31.83-19.08-71.87-13.28-97.44,13.43-45.28,47.3-46.29,141.69-1.06,190.07,14.19,15.18,32.76,24.7,53.54,26.16,47.99,3.35,79.57-31.66,91.38-75.83Z"/>
    </g>
  </g>
</svg>